<?xml version="1.0" encoding="utf-8"?>
<!-- Generator: Adobe Illustrator 24.1.1, SVG Export Plug-In . SVG Version: 6.00 Build 0)  -->
<svg version="1.1" id="Layer_1" xmlns="http://www.w3.org/2000/svg" xmlns:xlink="http://www.w3.org/1999/xlink" x="0px" y="0px"
	 viewBox="0 0 512 512" style="enable-background:new 0 0 512 512;" xml:space="preserve">
<style type="text/css">
	.st0{fill-rule:evenodd;clip-rule:evenodd;}
</style>
<g>
	<path class="st0" d="M256,103.9l-22.9-23.6C179.2,25,80.5,44.1,44.8,113.7c-16.7,32.7-20.5,80,10.1,140.3
		c29.4,58.1,90.7,127.7,201.2,203.4C366.5,381.7,427.7,312.1,457.2,254c30.6-60.4,26.8-107.6,10.1-140.3
		c-35.7-69.6-134.4-88.8-188.3-33.4L256,103.9z M256,496c-490.7-324.2-151.1-577.3-5.6-443.4l5.6,5.5l5.6-5.5
		C407.1-81.4,746.7,171.7,256,496z"/>
</g>
</svg>
