<?xml version="1.0" encoding="utf-8"?>
<!-- Svg Vector Icons : http://www.onlinewebfonts.com/icon -->
<!DOCTYPE svg PUBLIC "-//W3C//DTD SVG 1.1//EN" "http://www.w3.org/Graphics/SVG/1.1/DTD/svg11.dtd">
<svg version="1.1" xmlns="http://www.w3.org/2000/svg" xmlns:xlink="http://www.w3.org/1999/xlink" x="0px" y="0px" viewBox="0 0 1000 1000" enable-background="new 0 0 1000 1000" xml:space="preserve">
<metadata> Svg Vector Icons : http://www.onlinewebfonts.com/icon </metadata>
<g><path d="M294.6,494.2c-17.9-18-47.1-18-65,0c-17.9,18-17.9,47.1,0,65l189.1,189.1c9,9,20.7,13.5,32.5,13.5c11.7,0,23.5-4.5,32.5-13.5l432.6-432.6c17.9-18,17.9-47.1,0-65c-18-18-47.1-18-65,0L451.2,650.8L294.6,494.2L294.6,494.2z"/><path d="M987.4,449.1c-2-19.2-19.2-33.2-38.4-31.2c-19.2,2-33.2,19.2-31.2,38.4c1.5,14.4,2.2,29.1,2.2,43.7c0,231.6-188.4,420-420,420C268.4,920,80,731.6,80,500C80,268.4,268.4,80,500,80c82.6,0,162.6,24,231.2,69.3c16.1,10.7,37.8,6.2,48.5-9.9c10.6-16.1,6.2-37.8-9.9-48.5C689.7,38,596.4,10,500,10C229.8,10,10,229.8,10,500c0,270.2,219.8,490,490,490c270.2,0,490-219.8,490-490C990,483,989.1,465.9,987.4,449.1L987.4,449.1z"/></g>
</svg>